<svg width="377" height="80" viewBox="0 0 377 80" fill="none" xmlns="http://www.w3.org/2000/svg">
<path d="M31.1667 64.1667C17.3595 64.1667 6.16667 52.9738 6.16667 39.1667C6.16667 25.3595 17.3595 14.1667 31.1667 14.1667C40.7756 14.1667 50 18 53.3034 27.5384C53.699 27.5129 54.098 27.5 54.5 27.5C64.6252 27.5 72.8333 35.7081 72.8333 45.8333C72.8333 55.9586 64.6252 64.1667 54.5 64.1667C45.995 64.1667 39.9079 64.1667 31.1667 64.1667Z" stroke="black" stroke-width="5" stroke-linecap="round" stroke-linejoin="round"/>
<path d="M82.035 39.805C82.035 36.065 82.8967 32.71 84.62 29.74C86.38 26.77 88.745 24.46 91.715 22.81C94.7217 21.1233 98.0033 20.28 101.56 20.28C105.63 20.28 109.242 21.2883 112.395 23.305C115.585 25.285 117.895 28.1083 119.325 31.775H111.79C110.8 29.7583 109.425 28.255 107.665 27.265C105.905 26.275 103.87 25.78 101.56 25.78C99.03 25.78 96.775 26.3483 94.795 27.485C92.815 28.6217 91.2567 30.2533 90.12 32.38C89.02 34.5067 88.47 36.9817 88.47 39.805C88.47 42.6283 89.02 45.1033 90.12 47.23C91.2567 49.3567 92.815 51.0067 94.795 52.18C96.775 53.3167 99.03 53.885 101.56 53.885C103.87 53.885 105.905 53.39 107.665 52.4C109.425 51.41 110.8 49.9067 111.79 47.89H119.325C117.895 51.5567 115.585 54.38 112.395 56.36C109.242 58.34 105.63 59.33 101.56 59.33C97.9667 59.33 94.685 58.505 91.715 56.855C88.745 55.1683 86.38 52.84 84.62 49.87C82.8967 46.9 82.035 43.545 82.035 39.805ZM132.934 18.3V59H126.664V18.3H132.934ZM154.311 59.495C151.451 59.495 148.866 58.8533 146.556 57.57C144.246 56.25 142.431 54.4167 141.111 52.07C139.791 49.6867 139.131 46.9367 139.131 43.82C139.131 40.74 139.809 38.0083 141.166 35.625C142.523 33.2417 144.374 31.4083 146.721 30.125C149.068 28.8417 151.689 28.2 154.586 28.2C157.483 28.2 160.104 28.8417 162.451 30.125C164.798 31.4083 166.649 33.2417 168.006 35.625C169.363 38.0083 170.041 40.74 170.041 43.82C170.041 46.9 169.344 49.6317 167.951 52.015C166.558 54.3983 164.651 56.25 162.231 57.57C159.848 58.8533 157.208 59.495 154.311 59.495ZM154.311 54.05C155.924 54.05 157.428 53.665 158.821 52.895C160.251 52.125 161.406 50.97 162.286 49.43C163.166 47.89 163.606 46.02 163.606 43.82C163.606 41.62 163.184 39.7683 162.341 38.265C161.498 36.725 160.379 35.57 158.986 34.8C157.593 34.03 156.089 33.645 154.476 33.645C152.863 33.645 151.359 34.03 149.966 34.8C148.609 35.57 147.528 36.725 146.721 38.265C145.914 39.7683 145.511 41.62 145.511 43.82C145.511 47.0833 146.336 49.6133 147.986 51.41C149.673 53.17 151.781 54.05 154.311 54.05ZM203.684 28.695V59H197.414V55.425C196.424 56.6717 195.123 57.6617 193.509 58.395C191.933 59.0917 190.246 59.44 188.449 59.44C186.066 59.44 183.921 58.945 182.014 57.955C180.144 56.965 178.659 55.4983 177.559 53.555C176.496 51.6117 175.964 49.265 175.964 46.515V28.695H182.179V45.58C182.179 48.2933 182.858 50.3833 184.214 51.85C185.571 53.28 187.423 53.995 189.769 53.995C192.116 53.995 193.968 53.28 195.324 51.85C196.718 50.3833 197.414 48.2933 197.414 45.58V28.695H203.684ZM209.867 43.71C209.867 40.6667 210.49 37.9717 211.737 35.625C213.02 33.2783 214.744 31.4633 216.907 30.18C219.107 28.86 221.545 28.2 224.222 28.2C226.202 28.2 228.145 28.64 230.052 29.52C231.995 30.3633 233.535 31.5 234.672 32.93V18.3H240.997V59H234.672V54.435C233.645 55.9017 232.215 57.1117 230.382 58.065C228.585 59.0183 226.514 59.495 224.167 59.495C221.527 59.495 219.107 58.835 216.907 57.515C214.744 56.1583 213.02 54.2883 211.737 51.905C210.49 49.485 209.867 46.7533 209.867 43.71ZM234.672 43.82C234.672 41.73 234.232 39.915 233.352 38.375C232.509 36.835 231.39 35.6617 229.997 34.855C228.604 34.0483 227.1 33.645 225.487 33.645C223.874 33.645 222.37 34.0483 220.977 34.855C219.584 35.625 218.447 36.78 217.567 38.32C216.724 39.8233 216.302 41.62 216.302 43.71C216.302 45.8 216.724 47.6333 217.567 49.21C218.447 50.7867 219.584 51.9967 220.977 52.84C222.407 53.6467 223.91 54.05 225.487 54.05C227.1 54.05 228.604 53.6467 229.997 52.84C231.39 52.0333 232.509 50.86 233.352 49.32C234.232 47.7433 234.672 45.91 234.672 43.82ZM261.937 33.81H256.327V59H250.002V33.81H246.427V28.695H250.002V26.55C250.002 23.0667 250.919 20.5367 252.752 18.96C254.622 17.3467 257.537 16.54 261.497 16.54V21.765C259.591 21.765 258.252 22.1317 257.482 22.865C256.712 23.5617 256.327 24.79 256.327 26.55V28.695H261.937V33.81ZM280.639 59.495C277.779 59.495 275.194 58.8533 272.884 57.57C270.574 56.25 268.759 54.4167 267.439 52.07C266.119 49.6867 265.459 46.9367 265.459 43.82C265.459 40.74 266.137 38.0083 267.494 35.625C268.851 33.2417 270.702 31.4083 273.049 30.125C275.396 28.8417 278.017 28.2 280.914 28.2C283.811 28.2 286.432 28.8417 288.779 30.125C291.126 31.4083 292.977 33.2417 294.334 35.625C295.691 38.0083 296.369 40.74 296.369 43.82C296.369 46.9 295.672 49.6317 294.279 52.015C292.886 54.3983 290.979 56.25 288.559 57.57C286.176 58.8533 283.536 59.495 280.639 59.495ZM280.639 54.05C282.252 54.05 283.756 53.665 285.149 52.895C286.579 52.125 287.734 50.97 288.614 49.43C289.494 47.89 289.934 46.02 289.934 43.82C289.934 41.62 289.512 39.7683 288.669 38.265C287.826 36.725 286.707 35.57 285.314 34.8C283.921 34.03 282.417 33.645 280.804 33.645C279.191 33.645 277.687 34.03 276.294 34.8C274.937 35.57 273.856 36.725 273.049 38.265C272.242 39.7683 271.839 41.62 271.839 43.82C271.839 47.0833 272.664 49.6133 274.314 51.41C276.001 53.17 278.109 54.05 280.639 54.05ZM308.837 33.095C309.754 31.555 310.964 30.3633 312.467 29.52C314.007 28.64 315.822 28.2 317.912 28.2V34.69H316.317C313.861 34.69 311.991 35.3133 310.707 36.56C309.461 37.8067 308.837 39.97 308.837 43.05V59H302.567V28.695H308.837V33.095ZM360.361 28.2C362.744 28.2 364.871 28.695 366.741 29.685C368.647 30.675 370.132 32.1417 371.196 34.085C372.296 36.0283 372.846 38.375 372.846 41.125V59H366.631V42.06C366.631 39.3467 365.952 37.275 364.596 35.845C363.239 34.3783 361.387 33.645 359.041 33.645C356.694 33.645 354.824 34.3783 353.431 35.845C352.074 37.275 351.396 39.3467 351.396 42.06V59H345.181V42.06C345.181 39.3467 344.502 37.275 343.146 35.845C341.789 34.3783 339.937 33.645 337.591 33.645C335.244 33.645 333.374 34.3783 331.981 35.845C330.624 37.275 329.946 39.3467 329.946 42.06V59H323.676V28.695H329.946V32.16C330.972 30.9133 332.274 29.9417 333.851 29.245C335.427 28.5483 337.114 28.2 338.911 28.2C341.331 28.2 343.494 28.7133 345.401 29.74C347.307 30.7667 348.774 32.2517 349.801 34.195C350.717 32.3617 352.147 30.9133 354.091 29.85C356.034 28.75 358.124 28.2 360.361 28.2Z" fill="black"/>
</svg>
